<svg width="407" height="47" viewBox="0 0 407 47" fill="none" xmlns="http://www.w3.org/2000/svg">
<path d="M272.853 46.2535V0" stroke="#EDE1D5" stroke-width="9.46" stroke-miterlimit="10"/>
<path d="M287.097 4.3291H291.362C292.178 4.3291 292.893 4.47585 293.508 4.76018C294.122 5.0445 294.599 5.43889 294.929 5.925C295.26 6.42028 295.425 6.97059 295.425 7.5851C295.425 8.63069 295.058 9.45616 294.333 10.0615C293.609 10.6668 292.609 10.9695 291.352 10.9695H287.858V10.0615H291.352C292.352 10.0615 293.113 9.84137 293.655 9.4103C294.196 8.97922 294.462 8.37388 294.462 7.60345C294.462 7.17237 294.342 6.77798 294.095 6.42945C293.847 6.08092 293.489 5.79659 293.022 5.59481C292.554 5.39303 291.994 5.28297 291.352 5.28297H287.647L288.051 4.86107V14.8951H287.087V4.3291H287.097Z" fill="white"/>
<path d="M298.305 4.3291H302.166C303.514 4.3291 304.541 4.6226 305.266 5.21877C305.981 5.81494 306.348 6.62206 306.348 7.6493C306.348 8.26382 306.183 8.8233 305.862 9.32775C305.541 9.8322 305.064 10.2266 304.441 10.5201C303.808 10.8136 303.056 10.9603 302.175 10.9603H299.084V10.089H302.175C302.881 10.089 303.468 9.97895 303.954 9.74965C304.441 9.52036 304.798 9.22686 305.037 8.85081C305.275 8.47477 305.394 8.08038 305.394 7.65848C305.394 6.91556 305.128 6.33773 304.606 5.91583C304.074 5.5031 303.267 5.29214 302.184 5.29214H298.882L299.286 4.87024V14.9042H298.323V4.3291H298.305ZM299.451 10.6301H300.836L306.495 14.8859H304.954L299.451 10.6301Z" fill="white"/>
<path d="M310.751 4.3291V14.8859H309.788V4.3291H310.751Z" fill="white"/>
<path d="M318.391 14.8859L313.291 4.3291H314.374L318.895 13.7119H318.263L322.784 4.3291H323.867L318.767 14.8859H318.373H318.391Z" fill="white"/>
<path d="M328.379 4.3291H329.993L335.029 14.8859H333.974L329.36 5.28297H329.003L324.398 14.8859H323.325L328.379 4.3291ZM325.618 10.7402H332.763V11.6482H325.618V10.7402Z" fill="white"/>
<path d="M334.552 4.3291H344.806V5.28297H334.552V4.3291ZM340.156 14.8859H339.193V5.09954H340.156V14.8859Z" fill="white"/>
<path d="M347.319 4.3291H354.849V5.28297H347.878L348.282 4.86107V14.3631L347.878 13.9412H354.996V14.8951H347.319V4.3291ZM348.108 9.10763H354.702V9.97895H348.108V9.10763Z" fill="white"/>
<path d="M287.097 18.2061H294.627V19.16H287.656L288.06 18.7381V28.2401L287.656 27.8182H294.773V28.772H287.097V18.2153V18.2061ZM287.885 22.9938H294.48V23.8651H287.885V22.9938Z" fill="white"/>
<path d="M297.791 18.2061H298.965L303.578 23.9843L308.192 18.2061H309.366V28.7629H308.403V19.7103H308.192L303.578 25.4885L298.965 19.7103H298.754V28.7629H297.791V18.2061Z" fill="white"/>
<path d="M313.099 18.2061H317.364C318.18 18.2061 318.895 18.3528 319.51 18.6372C320.124 18.9215 320.601 19.3159 320.932 19.802C321.262 20.2973 321.427 20.8476 321.427 21.4621C321.427 22.5077 321.06 23.3331 320.335 23.9385C319.611 24.5438 318.611 24.8465 317.355 24.8465H313.86V23.9385H317.355C318.354 23.9385 319.116 23.7184 319.657 23.2873C320.198 22.8562 320.464 22.2509 320.464 21.4804C320.464 21.0494 320.345 20.655 320.097 20.3064C319.849 19.9579 319.492 19.6736 319.024 19.4718C318.556 19.27 317.997 19.16 317.355 19.16H313.649L314.053 18.7381V28.772H313.09V18.2153L313.099 18.2061Z" fill="white"/>
<path d="M325.27 18.2061V28.2401L324.866 27.8182H331.745V28.772H324.307V18.2153H325.27V18.2061Z" fill="white"/>
<path d="M335.68 28.2217C334.845 27.7356 334.185 27.0844 333.708 26.2498C333.231 25.4152 332.983 24.498 332.983 23.4891C332.983 22.4802 333.222 21.563 333.708 20.7283C334.194 19.8937 334.845 19.2333 335.68 18.7564C336.514 18.2795 337.432 18.0318 338.441 18.0318C339.449 18.0318 340.367 18.2703 341.201 18.7564C342.036 19.2425 342.696 19.8937 343.173 20.7283C343.65 21.563 343.898 22.4802 343.898 23.4891C343.898 24.498 343.659 25.4152 343.173 26.2498C342.687 27.0844 342.036 27.7448 341.201 28.2217C340.367 28.6987 339.449 28.9463 338.441 28.9463C337.432 28.9463 336.514 28.7078 335.68 28.2217ZM340.724 27.4054C341.412 27.0111 341.953 26.4699 342.348 25.7729C342.742 25.085 342.935 24.3237 342.935 23.4891C342.935 22.6544 342.742 21.8932 342.348 21.2053C341.953 20.5174 341.412 19.9763 340.724 19.5727C340.036 19.1783 339.275 18.9765 338.45 18.9765C337.624 18.9765 336.854 19.1783 336.166 19.5727C335.478 19.9671 334.937 20.5082 334.533 21.2053C334.139 21.8932 333.937 22.6544 333.937 23.4891C333.937 24.3237 334.139 25.085 334.533 25.7729C334.928 26.4607 335.469 27.0019 336.166 27.4054C336.854 27.7998 337.615 28.0016 338.441 28.0016C339.266 28.0016 340.036 27.7998 340.724 27.4054Z" fill="white"/>
<path d="M346.393 18.2061L350.749 23.6358H350.217L354.574 18.2061H355.812L350.951 24.2411V28.7629H349.988V24.2411L345.136 18.2061H346.383H346.393Z" fill="white"/>
<path d="M358.233 18.2061H359.407L364.021 23.9843L368.634 18.2061H369.808V28.7629H368.845V19.7103H368.634L364.021 25.4885L359.407 19.7103H359.196V28.7629H358.233V18.2061Z" fill="white"/>
<path d="M373.541 18.2061H381.071V19.16H374.101L374.504 18.7381V28.2401L374.101 27.8182H381.218V28.772H373.541V18.2153V18.2061ZM374.321 22.9938H380.915V23.8651H374.321V22.9938Z" fill="white"/>
<path d="M384.226 18.2061H385.419L393.251 26.6992V18.2061H394.215V28.7629H393.884L385.419 19.591H385.189V28.7629H384.226V18.2061Z" fill="white"/>
<path d="M396.746 18.2061H407V19.16H396.746V18.2061ZM402.359 28.7629H401.396V18.9765H402.359V28.7629Z" fill="white"/>
<path d="M290.976 32.0922H292.591L297.626 42.649H296.571L291.958 33.0461H291.6L286.996 42.649H285.923L290.976 32.0922ZM288.216 38.4942H295.36V39.4022H288.216V38.4942Z" fill="white"/>
<path d="M301.909 42.1079C301.065 41.6218 300.405 40.9706 299.919 40.1359C299.433 39.3013 299.194 38.3841 299.194 37.366C299.194 36.348 299.433 35.4308 299.919 34.5961C300.405 33.7707 301.065 33.1103 301.909 32.6242C302.753 32.1381 303.698 31.8996 304.734 31.8996C305.505 31.8996 306.202 32.0097 306.825 32.2206C307.44 32.4408 307.953 32.6976 308.366 33.0094C308.77 33.3213 309.063 33.6148 309.237 33.8991V35.3299H309.146C308.761 34.6237 308.201 34.0367 307.458 33.5597C306.715 33.0828 305.807 32.8443 304.743 32.8443C303.89 32.8443 303.111 33.0461 302.423 33.4405C301.726 33.8349 301.185 34.376 300.781 35.0731C300.377 35.7701 300.176 36.5222 300.176 37.3569C300.176 38.1915 300.377 38.9528 300.781 39.6407C301.185 40.3285 301.735 40.8697 302.423 41.2732C303.12 41.6676 303.89 41.8694 304.743 41.8694C305.596 41.8694 306.358 41.6951 307.027 41.3374C307.697 40.9797 308.219 40.4661 308.595 39.7966C308.971 39.127 309.164 38.3474 309.164 37.4669L309.614 37.9163H304.743V36.9992H310.127V37.3569C310.127 38.4667 309.898 39.4297 309.43 40.2552C308.971 41.0806 308.329 41.7135 307.513 42.1537C306.697 42.594 305.771 42.8141 304.734 42.8141C303.698 42.8141 302.762 42.5756 301.909 42.0895V42.1079Z" fill="white"/>
<path d="M313.218 32.0922H320.748V33.0461H313.777L314.181 32.6242V42.1262L313.777 41.7043H320.895V42.6582H313.218V32.1014V32.0922ZM314.007 36.8708H320.601V37.7421H314.007V36.8708Z" fill="white"/>
<path d="M323.912 32.0922H325.105L332.937 40.5854V32.0922H333.9V42.649H333.57L325.105 33.4772H324.875V42.649H323.912V32.0922Z" fill="white"/>
<path d="M339.917 42.1079C339.055 41.6309 338.376 40.9706 337.899 40.1359C337.422 39.3013 337.175 38.3749 337.175 37.3569C337.175 36.3388 337.422 35.4216 337.909 34.587C338.395 33.7615 339.064 33.1011 339.926 32.615C340.779 32.1289 341.733 31.8905 342.788 31.8905C343.641 31.8905 344.402 32.0097 345.063 32.2573C345.723 32.505 346.255 32.8076 346.659 33.1745V34.3852H346.567C346.136 33.9174 345.585 33.5414 344.934 33.2662C344.274 32.9911 343.558 32.8535 342.788 32.8535C341.907 32.8535 341.11 33.0553 340.403 33.4497C339.697 33.8441 339.147 34.3852 338.743 35.0823C338.34 35.7793 338.138 36.5314 338.138 37.366C338.138 38.2007 338.34 38.9711 338.734 39.659C339.128 40.3469 339.688 40.8788 340.412 41.2824C341.128 41.6768 341.944 41.8786 342.861 41.8786C343.595 41.8786 344.283 41.7502 344.925 41.4934C345.567 41.2366 346.145 40.8422 346.659 40.3102H346.75V41.4383C346.319 41.8602 345.76 42.1996 345.072 42.4472C344.384 42.6949 343.65 42.8233 342.852 42.8233C341.752 42.8233 340.779 42.5848 339.908 42.1079H339.917Z" fill="white"/>
<path d="M349.575 32.0922L353.932 37.522H353.4L357.756 32.0922H358.995L354.134 38.1273V42.649H353.171V38.1273L348.319 32.0922H349.566H349.575Z" fill="white"/>
<path d="M3.47612 43.4928H0V3.65955H3.76045L19.1875 38.7693L34.5411 3.65955H38.3016V43.4928H34.8254V10.6577L20.4257 43.4928H17.8667L3.47612 10.6577V43.4928Z" fill="white"/>
<path d="M57.1956 6.67708H55.3153L41.6585 43.502H38.1273L52.9307 3.65955H59.5344L74.2735 43.4928H70.7974L57.1956 6.67708ZM44.676 29.4966H67.8991V32.5141H44.676V29.4966Z" fill="white"/>
<path d="M95.5521 3.65955H99.3126L84.9128 27.7356V43.502H81.4367V27.7356L66.9819 3.65955H70.8524L83.1977 24.4337L95.543 3.65955H95.5521Z" fill="white"/>
<path d="M100.331 3.65955H103.807V43.4928H100.331V3.65955Z" fill="white"/>
<path d="M122.701 6.67708H120.821L107.164 43.502H103.633L118.436 3.65955H125.04L139.779 43.4928H136.303L122.701 6.66791V6.67708ZM110.181 29.4966H133.404V32.5141H110.181V29.4966Z" fill="white"/>
<path d="M140.687 33.9358C140.953 34.9997 141.466 36.0636 142.228 37.1276C142.989 38.1915 144.062 39.072 145.447 39.7691C146.832 40.4753 148.639 40.8238 150.886 40.8238C154.032 40.8238 156.371 40.0992 157.884 38.6593C159.397 37.2193 160.159 35.4308 160.159 33.3121C160.159 31.6795 159.737 30.3312 158.874 29.2673C158.021 28.2034 156.866 27.3321 155.398 26.6533C153.94 25.9655 152.298 25.3601 150.473 24.8281C148.914 24.4154 147.41 23.9476 145.951 23.434C144.493 22.9204 143.172 22.2875 141.998 21.5263C140.824 20.765 139.889 19.7928 139.21 18.5913C138.531 17.399 138.183 15.904 138.183 14.1246C138.183 11.9234 138.696 10.0156 139.724 8.4014C140.751 6.78715 142.2 5.53061 144.08 4.61343C145.961 3.69625 148.171 3.24683 150.712 3.24683C152.949 3.24683 154.885 3.57701 156.517 4.24656C158.15 4.90693 159.498 5.82411 160.562 6.97976C161.626 8.13541 162.387 9.41947 162.837 10.8228L159.819 11.9601C159.516 11.0887 158.975 10.2082 158.196 9.31858C157.416 8.42891 156.398 7.68599 155.123 7.09899C153.848 6.512 152.344 6.2185 150.601 6.2185C148.969 6.2185 147.474 6.512 146.107 7.09899C144.741 7.68599 143.649 8.53897 142.833 9.65794C142.017 10.7769 141.613 12.116 141.613 13.6752C141.613 15.3445 142.072 16.6652 142.98 17.6283C143.888 18.5913 145.098 19.3709 146.593 19.9579C148.088 20.5449 149.748 21.1044 151.574 21.6363C153.133 22.1316 154.637 22.6636 156.095 23.2322C157.554 23.8009 158.847 24.5071 159.966 25.3418C161.085 26.1764 161.975 27.2128 162.644 28.4418C163.304 29.6709 163.644 31.1842 163.644 32.9636C163.644 34.8988 163.194 36.7057 162.305 38.3749C161.415 40.0442 160.039 41.3833 158.177 42.383C156.316 43.3919 153.913 43.8872 150.95 43.8872C148.409 43.8872 146.217 43.502 144.374 42.7224C142.53 41.9428 141.044 40.8972 139.907 39.5948C138.77 38.2832 137.99 36.8157 137.577 35.1831L140.705 33.9266L140.687 33.9358Z" fill="white"/>
<path d="M183.143 43.8964C180.337 43.8964 177.741 43.4011 175.347 42.4197C172.953 41.4292 170.871 40.035 169.083 38.2374C167.294 36.4397 165.928 34.2935 164.955 31.8079C163.992 29.3223 163.506 26.58 163.506 23.5808C163.506 20.5816 163.992 17.8392 164.955 15.3536C165.928 12.8681 167.294 10.7219 169.083 8.92419C170.862 7.12651 172.953 5.73239 175.347 4.74183C177.741 3.75127 180.337 3.26517 183.143 3.26517C185.95 3.26517 188.481 3.76045 190.857 4.74183C193.223 5.73239 195.296 7.12651 197.057 8.92419C198.818 10.731 200.194 12.8681 201.184 15.3536C202.175 17.8392 202.661 20.5816 202.661 23.5808C202.661 26.58 202.166 29.3223 201.184 31.8079C200.194 34.2935 198.818 36.4397 197.057 38.2374C195.296 40.035 193.223 41.4383 190.857 42.4197C188.481 43.4103 185.913 43.8964 183.143 43.8964ZM183.143 40.8788C186.142 40.8788 188.839 40.1818 191.251 38.7693C193.663 37.366 195.58 35.3757 197.002 32.7985C198.423 30.2212 199.139 27.1486 199.139 23.5808C199.139 20.0129 198.423 16.9312 197.002 14.3356C195.58 11.7399 193.663 9.74965 191.251 8.36471C188.839 6.97976 186.142 6.29187 183.143 6.29187C180.144 6.29187 177.374 6.97976 174.953 8.36471C172.522 9.74965 170.596 11.7399 169.174 14.3356C167.753 16.9312 167.037 20.0221 167.037 23.5808C167.037 27.1394 167.753 30.2212 169.174 32.7985C170.596 35.3757 172.522 37.3752 174.953 38.7693C177.383 40.1726 180.107 40.8788 183.143 40.8788Z" fill="white"/>
<path d="M231.002 3.65955H234.698L219.445 43.4928H215.575L200.496 3.65955H204.192L217.565 39.6865L230.993 3.65955H231.002Z" fill="white"/>
<path d="M245.227 6.67709H243.347L229.69 43.502H226.159L240.953 3.66873H247.557L262.296 43.502H258.82L245.218 6.67709H245.227ZM232.708 29.4966H255.931V32.5141H232.708V29.4966Z" fill="white"/>
</svg>
